<svg width="186" height="180" viewBox="0 0 186 180" fill="none" xmlns="http://www.w3.org/2000/svg">
<circle opacity="0.2" cx="95.4668" cy="90.5" r="70.5" fill="#29AE29"/>
<circle cx="178.433" cy="27.5" r="7.5" fill="#29AE29"/>
<circle cx="20" cy="10" r="10" fill="#29AE29"/>
<circle cx="10" cy="133" r="5" fill="#29AE29"/>
<circle cx="165.5" cy="160.5" r="2.5" fill="#29AE29"/>
<g clip-path="url(#clip0_402_3804)">
<path fill-rule="evenodd" clip-rule="evenodd" d="M67.9666 90C67.9666 82.5739 70.9165 75.452 76.1676 70.201C81.4186 64.95 88.5405 62 95.9666 62C103.393 62 110.515 64.95 115.766 70.201C121.017 75.452 123.967 82.5739 123.967 90C123.967 97.4261 121.017 104.548 115.766 109.799C110.515 115.05 103.393 118 95.9666 118C88.5405 118 81.4186 115.05 76.1676 109.799C70.9165 104.548 67.9666 97.4261 67.9666 90ZM94.3687 101.984L110.489 81.8315L107.577 79.5019L93.8311 96.6789L84.0946 88.5664L81.7052 91.4336L94.3687 101.988V101.984Z" fill="#64C361"/>
</g>
<circle cx="106.5" cy="4.5" r="2.5" fill="#29AE29"/>
<circle cx="62.5" cy="176.5" r="3.5" fill="#29AE29"/>
<circle cx="122" cy="171" r="1" fill="#29AE29"/>
<circle cx="170.5" cy="110.5" r="2.5" fill="#29AE29"/>
<circle cx="1" cy="75" r="1" fill="#29AE29"/>
<defs>
<clipPath id="clip0_402_3804">
<rect width="56" height="56" fill="white" transform="translate(67.9666 62)"/>
</clipPath>
</defs>
</svg>
