<svg width="13" height="13" viewBox="0 0 13 13" fill="none" xmlns="http://www.w3.org/2000/svg">
<path fill-rule="evenodd" clip-rule="evenodd" d="M2.20038e-07 5.97949V6.50391V6.54125C-8.19959e-06 7.49617 -1.45992e-05 8.24106 0.0488284 8.83887C0.0987199 9.4493 0.20145 9.94544 0.428711 10.3916C0.764851 11.0513 1.28001 11.6012 1.91193 11.9802C1.98883 12.0267 2.0681 12.0708 2.14981 12.1124C2.59611 12.3399 3.09229 12.4426 3.70298 12.4925C4.45531 12.5539 5.21265 12.5491 5.96834 12.5442C6.10517 12.5434 6.24196 12.5425 6.37865 12.542H6.5625C7.50807 12.542 8.2429 12.5419 8.83203 12.4951C9.42601 12.4479 9.90935 12.3509 10.3457 12.1357C11.1231 11.7524 11.7524 11.1231 12.1357 10.3457C12.3509 9.90935 12.4479 9.42601 12.4951 8.83203C12.5419 8.2429 12.542 7.50807 12.542 6.5625V6.27051C12.5418 6.02914 12.3459 5.83318 12.1045 5.83301C11.863 5.83301 11.6672 6.02903 11.667 6.27051V6.5625C11.667 7.5221 11.6665 8.21626 11.623 8.7627C11.6226 8.76818 11.6222 8.77365 11.6217 8.77909L10.9643 8.12171C10.5183 7.67567 10.2953 7.45265 10.0397 7.36504C9.79449 7.28096 9.52823 7.28096 9.28299 7.36504C9.02743 7.45265 8.80441 7.67567 8.35837 8.12171C8.13831 8.34178 8.02828 8.45181 7.90193 8.49573C7.78066 8.53789 7.64887 8.53887 7.527 8.4985C7.40002 8.45645 7.28837 8.34806 7.06508 8.13127L5.83584 6.93782L5.83584 6.93782C5.37327 6.48871 5.14198 6.26416 4.87732 6.18118C4.64448 6.10818 4.3946 6.11002 4.16286 6.18646C3.89946 6.27333 3.67151 6.50128 3.21562 6.95717L0.971052 9.20174C0.950454 9.07053 0.933909 8.92677 0.920899 8.76758C0.875007 8.20589 0.875 7.49122 0.875 6.50391V5.97949C0.875 5.02005 0.875545 4.32569 0.918946 3.7793C0.96197 3.23787 1.04474 2.87852 1.19043 2.58301C1.4886 1.97837 1.97837 1.4886 2.58301 1.19043C2.87852 1.04474 3.23787 0.96197 3.7793 0.918945C4.32569 0.875544 5.02005 0.875 5.97949 0.875H6.27051C6.51213 0.875 6.70801 0.679125 6.70801 0.4375C6.70801 0.195875 6.51213 0 6.27051 0H5.97949C5.03404 0 4.29906 7.81357e-05 3.70996 0.0468751C3.11601 0.0940729 2.63263 0.191108 2.19629 0.40625C1.4189 0.789616 0.789617 1.4189 0.40625 2.19629C0.191108 2.63263 0.0940731 3.11601 0.0468753 3.70996C7.82801e-05 4.29906 2.20038e-07 5.03404 2.20038e-07 5.97949ZM9.33301 2.07715V4.52051C9.33301 4.76202 9.52903 4.95783 9.77051 4.95801C10.0121 4.95801 10.208 4.76213 10.208 4.52051V2.07617L10.9199 2.78809C11.0908 2.95894 11.3672 2.95894 11.5381 2.78809C11.7089 2.61723 11.7089 2.34078 11.5381 2.16992L10.0801 0.711914C9.90922 0.54106 9.63277 0.54106 9.46191 0.711914L8.00293 2.16992C7.83235 2.34068 7.83246 2.61726 8.00293 2.78809C8.17378 2.95894 8.45122 2.95894 8.62207 2.78809L9.33301 2.07715ZM10.0801 0.711914L9.77148 1.02051H9.77051L10.0801 0.711914Z" fill="#C4D0E7"/>
</svg>
