<svg width="24" height="24" viewBox="0 0 24 24" fill="none" xmlns="http://www.w3.org/2000/svg">
<path d="M12.5 3.92857C12.5 3.01926 12.1388 2.14719 11.4958 1.50421C10.8528 0.861223 9.98074 0.5 9.07143 0.5C8.16211 0.5 7.29004 0.861223 6.64706 1.50421C6.00408 2.14719 5.64286 3.01926 5.64286 3.92857V14.2143M12.5 7.35714V9.07143M0.5 14.2143H22.7857V17.6429C22.7857 19.0068 22.2439 20.3149 21.2794 21.2794C20.3149 22.2439 19.0068 22.7857 17.6429 22.7857H5.64286C4.27889 22.7857 2.97078 22.2439 2.00631 21.2794C1.04184 20.3149 0.5 19.0068 0.5 17.6429V14.2143Z" stroke="white" stroke-linecap="round" stroke-linejoin="round"/>
</svg>
