<svg width="24" height="24" viewBox="0 0 24 24" fill="none" xmlns="http://www.w3.org/2000/svg">
<g clip-path="url(#clip0_407_6207)">
<path d="M12.8572 4.2855C12.8572 3.37619 12.496 2.50412 11.853 1.86114C11.21 1.21816 10.3379 0.856934 9.42861 0.856934C8.51929 0.856934 7.64722 1.21816 7.00424 1.86114C6.36126 2.50412 6.00003 3.37619 6.00003 4.2855V14.5712M12.8572 7.71408V9.42836M0.857178 14.5712H23.1429V17.9998C23.1429 19.3638 22.6011 20.6719 21.6366 21.6363C20.6721 22.6008 19.364 23.1426 18 23.1426H6.00003C4.63606 23.1426 3.32796 22.6008 2.36349 21.6363C1.39901 20.6719 0.857178 19.3638 0.857178 17.9998V14.5712Z" stroke="white" stroke-linecap="round" stroke-linejoin="round"/>
</g>
<defs>
<clipPath id="clip0_407_6207">
<rect width="24" height="24" fill="white"/>
</clipPath>
</defs>
</svg>
