<svg width="24" height="24" viewBox="0 0 24 24" fill="none" xmlns="http://www.w3.org/2000/svg">
<path d="M14.9625 10.1937C15.8117 10.1937 16.5 9.50529 16.5 8.65615C16.5 7.80701 15.8117 7.11865 14.9625 7.11865C14.1134 7.11865 13.425 7.80701 13.425 8.65615C13.425 9.50529 14.1134 10.1937 14.9625 10.1937Z" stroke="white" stroke-width="1.5" stroke-miterlimit="10" stroke-linecap="round" stroke-linejoin="round"/>
<path d="M8.0375 10.1937C8.88664 10.1937 9.575 9.50529 9.575 8.65615C9.575 7.80701 8.88664 7.11865 8.0375 7.11865C7.18837 7.11865 6.5 7.80701 6.5 8.65615C6.5 9.50529 7.18837 10.1937 8.0375 10.1937Z" stroke="white" stroke-width="1.5" stroke-miterlimit="10" stroke-linecap="round" stroke-linejoin="round"/>
<path d="M14.9625 17.8812C15.8117 17.8812 16.5 17.1928 16.5 16.3437C16.5 15.4945 15.8117 14.8062 14.9625 14.8062C14.1134 14.8062 13.425 15.4945 13.425 16.3437C13.425 17.1928 14.1134 17.8812 14.9625 17.8812Z" stroke="white" stroke-width="1.5" stroke-miterlimit="10" stroke-linecap="round" stroke-linejoin="round"/>
<path d="M8.0375 17.8812C8.88664 17.8812 9.575 17.1928 9.575 16.3437C9.575 15.4945 8.88664 14.8062 8.0375 14.8062C7.18837 14.8062 6.5 15.4945 6.5 16.3437C6.5 17.1928 7.18837 17.8812 8.0375 17.8812Z" stroke="white" stroke-width="1.5" stroke-miterlimit="10" stroke-linecap="round" stroke-linejoin="round"/>
<path d="M9 22H15C20 22 22 20 22 15V9C22 4 20 2 15 2H9C4 2 2 4 2 9V15C2 20 4 22 9 22Z" stroke="white" stroke-width="1.5" stroke-linecap="round" stroke-linejoin="round"/>
</svg>
