<svg width="20" height="24" viewBox="0 0 20 24" fill="none" xmlns="http://www.w3.org/2000/svg">
<g clip-path="url(#clip0_391_22035)">
<path d="M19.1094 18.0874C18.759 18.8983 18.3442 19.6447 17.8636 20.3309C17.2085 21.2664 16.6721 21.9139 16.2588 22.2735C15.618 22.8638 14.9314 23.166 14.1962 23.1832C13.6684 23.1832 13.0319 23.0328 12.291 22.7277C11.5476 22.4239 10.8645 22.2735 10.2399 22.2735C9.58476 22.2735 8.88217 22.4239 8.13067 22.7277C7.37802 23.0328 6.77169 23.1918 6.30812 23.2076C5.6031 23.2377 4.90037 22.9268 4.19893 22.2735C3.75123 21.8824 3.19125 21.2119 2.52042 20.2621C1.80066 19.2478 1.20893 18.0717 0.745354 16.7307C0.24888 15.2823 0 13.8798 0 12.522C0 10.9666 0.33556 9.62509 1.00768 8.50092C1.53591 7.59794 2.23864 6.88564 3.11816 6.36274C3.99768 5.83983 4.948 5.57337 5.97142 5.55632C6.5314 5.55632 7.26574 5.72981 8.1783 6.07077C9.08829 6.41288 9.67258 6.58637 9.92876 6.58637C10.1203 6.58637 10.7694 6.38351 11.8697 5.97908C12.9103 5.60403 13.7886 5.44873 14.508 5.5099C16.4576 5.66749 17.9223 6.43723 18.8963 7.82401C17.1527 8.88214 16.2902 10.3642 16.3074 12.2654C16.3231 13.7463 16.8595 14.9786 17.9137 15.9571C18.3914 16.4112 18.9249 16.7622 19.5185 17.0115C19.3898 17.3854 19.2539 17.7436 19.1094 18.0874ZM14.6382 0.464802C14.6382 1.62552 14.2148 2.70928 13.3709 3.7124C12.3525 4.90491 11.1207 5.594 9.78487 5.48526C9.76784 5.34601 9.75797 5.19945 9.75797 5.04545C9.75797 3.93116 10.2423 2.73865 11.1024 1.76361C11.5317 1.26993 12.0779 0.859445 12.7401 0.531991C13.4009 0.209423 14.026 0.0310363 14.6139 0.000488281C14.631 0.155658 14.6382 0.310838 14.6382 0.464787V0.464802Z" fill="#FBFBFB"/>
</g>
<defs>
<clipPath id="clip0_391_22035">
<rect width="19.5185" height="23.2091" fill="white"/>
</clipPath>
</defs>
</svg>
